<?xml version="1.0" encoding="UTF-8"?>
<svg xmlns="http://www.w3.org/2000/svg" xmlns:xlink="http://www.w3.org/1999/xlink" width="14px" height="14px" viewBox="0 0 14 14" version="1.1">
<g id="surface1">
<path style=" stroke:none;fill-rule:nonzero;fill:rgb(0%,0%,0%);fill-opacity:1;" d="M 7 0 C 3.140625 0 0 3.140625 0 7 C 0 10.859375 3.140625 14 7 14 C 10.859375 14 14 10.859375 14 7 C 14 3.140625 10.859375 0 7 0 Z M 11.019531 5.816406 L 6.621094 10.214844 C 6.433594 10.402344 6.1875 10.503906 5.921875 10.503906 C 5.65625 10.503906 5.410156 10.402344 5.222656 10.214844 L 2.980469 7.972656 C 2.792969 7.785156 2.691406 7.539062 2.691406 7.273438 C 2.691406 7.007812 2.792969 6.761719 2.980469 6.574219 C 3.167969 6.386719 3.414062 6.285156 3.679688 6.285156 C 3.945312 6.285156 4.195312 6.386719 4.378906 6.574219 L 5.921875 8.117188 L 9.621094 4.417969 C 9.804688 4.230469 10.054688 4.128906 10.320312 4.128906 C 10.582031 4.128906 10.832031 4.230469 11.019531 4.417969 C 11.40625 4.804688 11.40625 5.433594 11.019531 5.816406 Z M 11.019531 5.816406 "/>
</g>
</svg>
