<?xml version="1.0" encoding="UTF-8"?>
<svg xmlns="http://www.w3.org/2000/svg" xmlns:xlink="http://www.w3.org/1999/xlink" width="14px" height="14px" viewBox="0 0 14 14" version="1.1">
<g id="surface1">
<path style=" stroke:none;fill-rule:nonzero;fill:rgb(0%,0%,0%);fill-opacity:1;" d="M 8.660156 7 L 13.863281 1.800781 C 14.046875 1.617188 14.046875 1.316406 13.863281 1.132812 L 12.867188 0.140625 C 12.777344 0.0507812 12.660156 0 12.535156 0 C 12.410156 0 12.289062 0.0507812 12.199219 0.140625 L 7 5.339844 L 1.800781 0.140625 C 1.710938 0.0507812 1.589844 0 1.464844 0 C 1.339844 0 1.222656 0.0507812 1.132812 0.140625 L 0.136719 1.132812 C -0.046875 1.316406 -0.046875 1.617188 0.136719 1.800781 L 5.339844 7 L 0.140625 12.199219 C -0.046875 12.382812 -0.046875 12.683594 0.140625 12.867188 L 1.132812 13.859375 C 1.222656 13.949219 1.339844 14 1.46875 14 C 1.59375 14 1.710938 13.949219 1.800781 13.859375 L 7 8.660156 L 12.199219 13.859375 C 12.289062 13.949219 12.40625 14 12.53125 14 C 12.660156 14 12.777344 13.949219 12.867188 13.859375 L 13.859375 12.867188 C 14.046875 12.683594 14.046875 12.382812 13.859375 12.199219 Z M 8.660156 7 "/>
</g>
</svg>
